<svg xmlns="http://www.w3.org/2000/svg" width="73.293" height="73.294" viewBox="0 0 73.293 73.294">
  <g id="Group_87" data-name="Group 87" transform="matrix(0.996, -0.087, 0.087, 0.996, -5838.496, 1388.429)">
    <path id="Path_48" data-name="Path 48" d="M422.8,201.6h10.38v10.38H422.8Z" transform="translate(5563.373 -1051.757)"/>
    <path id="Path_49" data-name="Path 49" d="M372.4,151.2h10.38v10.38H372.4Z" transform="translate(5603.392 -1011.738)"/>
    <path id="Path_50" data-name="Path 50" d="M322,100.8h10.38v10.38H322Z" transform="translate(5643.411 -971.719)"/>
    <path id="Path_51" data-name="Path 51" d="M322,403.2h10.38v10.38H322Z" transform="translate(5643.411 -1211.834)"/>
    <path id="Path_52" data-name="Path 52" d="M372.4,352.8h10.38v10.38H372.4Z" transform="translate(5603.392 -1171.815)"/>
    <path id="Path_53" data-name="Path 53" d="M422.8,302.4h10.38v10.38H422.8Z" transform="translate(5563.373 -1131.796)"/>
    <path id="Path_54" data-name="Path 54" d="M473.2,252h10.38v10.38H473.2Z" transform="translate(5523.354 -1091.776)"/>
    <path id="Path_55" data-name="Path 55" d="M241.58,211.982h10.764V201.6H221.2v10.38Z" transform="translate(5723.448 -1051.759)"/>
    <path id="Path_56" data-name="Path 56" d="M241.58,302.4H221.2v10.381h31.143V302.4Z" transform="translate(5723.448 -1131.796)"/>
    <path id="Path_57" data-name="Path 57" d="M170.8,252h10.38v10.38H170.8Z" transform="translate(5763.469 -1091.776)"/>
  </g>
</svg>
