<svg xmlns="http://www.w3.org/2000/svg" width="78.621" height="79.345" viewBox="0 0 78.621 79.345">
  <g id="Group_126" data-name="Group 126" transform="matrix(0.998, 0.07, -0.07, 0.998, 4.533, -0.755)">
    <path id="Path_64" data-name="Path 64" d="M15.248,10.83H53.367V0H0V10.83Z" transform="translate(10.83 0)"/>
    <path id="Path_62" data-name="Path 62" d="M0,10.83V54.148H10.83V0H0Z" transform="translate(64.197 10.83)"/>
    <path id="Path_63" data-name="Path 63" d="M38.12,0H0V10.83H53.367V0Z" transform="translate(10.83 64.978)"/>
    <path id="Path_65" data-name="Path 65" d="M10.83,32.489V0H0V54.148H10.83Z" transform="translate(0 10.83)"/>
    <path id="Path_66" data-name="Path 66" d="M17.823,10.185V2.546H15.277V0H2.546V2.546H0V15.277H2.546v2.546H15.277V15.277h2.546Z" transform="translate(28.602 31.024)"/>
    <path id="Path_67" data-name="Path 67" d="M35.646,12.731V7.638H33.1V5.092H30.553V2.546H25.461V0H12.731V2.546H7.638V5.092H5.092V7.638H2.546v5.092H0V25.461H2.546v5.092H5.092V33.1H7.638v2.546h5.092v2.546H25.461V35.646h5.092V33.1H33.1V30.554h2.546V25.461h2.546V12.731ZM30.553,25.461H28.007v2.546H25.461v2.546H12.731V28.007H10.184V25.461H7.638V12.731h2.546V10.185h2.546V7.638H25.461v2.546h2.546v2.546h2.546Z" transform="translate(18.417 20.839)"/>
    <rect id="Rectangle_28" data-name="Rectangle 28" width="5.303" height="5.303" transform="translate(55.482 13.663)"/>
  </g>
</svg>
