<svg xmlns="http://www.w3.org/2000/svg" width="86.276" height="70.065" viewBox="0 0 86.276 70.065">
  <g id="Group_92" data-name="Group 92" transform="matrix(0.995, -0.105, 0.105, 0.995, -3648.175, 2577.201)">
    <path id="Path_58" data-name="Path 58" d="M172.214,93.107h45.536V84H154v9.107Z" transform="translate(3750.945 -2258.271)"/>
    <path id="Path_59" data-name="Path 59" d="M546,149.107v36.429h9.107V140H546Z" transform="translate(3422.696 -2305.163)"/>
    <path id="Path_60" data-name="Path 60" d="M199.536,420H154v9.107h63.751V420Z" transform="translate(3750.945 -2539.627)"/>
    <path id="Path_61" data-name="Path 61" d="M107.107,167.322V140H98v45.536h9.107Z" transform="translate(3797.837 -2305.163)"/>
    <g id="Group_91" data-name="Group 91" transform="translate(3927.18 -2157.911)">
      <g id="Group_54" data-name="Group 54" transform="translate(0 0)">
        <path id="Path_7" data-name="Path 7" d="M378,308h4.433v4.433H378Z" transform="translate(-364.701 -290.267)"/>
        <path id="Path_9" data-name="Path 9" d="M378,207.2h4.433v4.433H378Z" transform="translate(-364.701 -198.333)"/>
        <path id="Path_11" data-name="Path 11" d="M378,207.2h4.433v4.433H378Z" transform="translate(-369.134 -202.766)"/>
        <path id="Path_14" data-name="Path 14" d="M378,207.2h4.433v4.433H378Z" transform="translate(-373.567 -207.2)"/>
        <path id="Path_15" data-name="Path 15" d="M378,207.2h4.433v31.033H378Z" transform="translate(-378 -207.2)"/>
        <path id="Path_12" data-name="Path 12" d="M378,207.2h4.433v4.433H378Z" transform="translate(-369.134 -185.034)"/>
        <path id="Path_13" data-name="Path 13" d="M378,207.2h4.433v4.433H378Z" transform="translate(-373.567 -180.6)"/>
        <path id="Path_10" data-name="Path 10" d="M428.4,257.6h4.433v4.433H428.4Z" transform="translate(-410.667 -244.3)"/>
      </g>
    </g>
  </g>
</svg>
